<svg xmlns="http://www.w3.org/2000/svg" width="960" height="540" viewBox="0 0 960 540" role="img" aria-label="Amarok">
  <defs>
    <linearGradient id="g" x1="0" y1="0" x2="1" y2="1">
      <stop offset="0%" stop-color="#2C3038"/>
      <stop offset="100%" stop-color="#101216"/>
    </linearGradient>
    <linearGradient id="floor" x1="0" y1="0" x2="0" y2="1">
      <stop offset="0%" stop-color="#ffffff" stop-opacity="0.0"/>
      <stop offset="100%" stop-color="#0b1220" stop-opacity="0.12"/>
    </linearGradient>
  </defs>
  <rect width="960" height="540" fill="#f7f8fa"/>
  <rect width="960" height="540" fill="url(#floor)"/>
  <ellipse cx="480" cy="430" rx="280" ry="28" fill="#0b1220" opacity="0.12"/>
  <g transform="translate(140 170)">
    <path d="M80 170 C120 110, 180 70, 280 62 C360 56, 430 70, 500 95 C560 116, 610 150, 640 170 L640 210 C520 220, 200 220, 80 210 Z" fill="url(#g)"/>
    <path d="M210 95 C250 72, 330 62, 400 78 C450 90, 500 115, 545 145 L300 145 C270 120, 240 105, 210 95 Z" fill="#ffffff" opacity="0.28"/>
    <circle cx="190" cy="210" r="42" fill="#1a1f27"/>
    <circle cx="190" cy="210" r="22" fill="#cfd3d8"/>
    <circle cx="520" cy="210" r="42" fill="#1a1f27"/>
    <circle cx="520" cy="210" r="22" fill="#cfd3d8"/>
    <rect x="95" y="145" width="36" height="14" rx="4" fill="#f5f7fa" opacity="0.85"/>
  </g>
  <text x="48" y="64" font-family="Segoe UI, Arial, sans-serif" font-size="34" font-weight="700" fill="#0b1220">Amarok</text>
  <text x="48" y="98" font-family="Segoe UI, Arial, sans-serif" font-size="16" fill="#5b6472">Granville · ilustracion propia</text>
</svg>
